<svg xmlns="http://www.w3.org/2000/svg" width="113" height="24" viewBox="0 0 113 24">
    <g fill="none" fill-rule="nonzero">
        <path fill="#FFF" d="M39.9 12.4c1.2-1 1.9-2.4 1.9-4.2 0-3.7-3-6.1-6.8-6.1h-8.4v21.4h9c3.8 0 6.9-2.5 6.9-6.3 0-2.2-1-3.8-2.6-4.8zm-8.4-5.8H35c1.1 0 1.9.8 1.9 1.9 0 1.1-.8 1.9-1.9 1.9h-3.5V6.6zm4.1 12.3h-4.1v-4.1h4.1c1.2 0 2 .9 2 2.1 0 1.1-.8 2-2 2zm24.6-1.6c0 4.1-3.3 6.6-8 6.6-4.5 0-7.4-2.1-8.6-5.3l4.2-2.5c.8 1.8 2.1 3 4.5 3 2.3 0 2.9-.9 2.9-1.7 0-1.3-1.2-1.8-4.4-2.7-3.2-.9-6.3-2.4-6.3-6.5s3.5-6.5 7.2-6.5c3.5 0 6.3 1.7 7.8 4.8l-4.1 2.4c-.7-1.5-1.7-2.5-3.7-2.5-1.5 0-2.3.8-2.3 1.6 0 1 .5 1.7 3.9 2.7 3.2 1 6.9 2.1 6.9 6.6zm9.9-16.2h4.6v22.4h-4.6V1.1zm18.8 8.5c-1-1.2-2.5-1.9-4.6-1.9-4 0-7.3 3.5-7.3 8.1s3.3 8.1 7.3 8.1c2.1 0 3.6-.7 4.6-1.9v1.4h4.6V8.2h-4.6v1.4zm-3.7 10c-2.1 0-3.6-1.4-3.6-3.7 0-2.3 1.5-3.7 3.6-3.7s3.6 1.4 3.6 3.7c.1 2.2-1.5 3.7-3.6 3.7zm20.5-11.9c-2.1 0-3.6.7-4.6 1.9V2h-4.6v21.4h4.6V22c1 1.2 2.5 1.9 4.6 1.9 4 0 7.3-3.5 7.3-8.1 0-4.5-3.3-8.1-7.3-8.1zm-.9 11.9c-2.1 0-3.6-1.4-3.6-3.7 0-2.3 1.5-3.7 3.6-3.7s3.6 1.4 3.6 3.7c0 2.2-1.5 3.7-3.6 3.7z"/>
        <path fill="#FF7303" d="M.9 22c-1.5-1.9-1.2-4.7.8-6.2 1.9-1.5 4.7-1.2 6.2.8 1.5 1.9 1.2 4.7-.8 6.2-1.9 1.5-4.7 1.1-6.2-.8zm17.4.7c1.9-1.5 2.3-4.2.8-6.2-.8-1-1.9-1.6-3-1.7-2.1-.5-6.2-1.2-4.7-6.8.5-1.7.2-3.6-1-5.1C8.5.3 4.9-.2 2.3 1.7c-2.5 2-3 5.6-1 8.2 1.2 1.5 2.9 2.3 4.7 2.3 5.8 0 5.5 4.2 5.4 6.3-.2 1.1.1 2.4.8 3.4 1.4 1.9 4.1 2.3 6.1.8z"/>
    </g>
</svg>
