<svg xmlns="http://www.w3.org/2000/svg" width="32" height="32" viewBox="0 0 32 32">
    <g fill="none" fill-rule="evenodd">
        <circle cx="16" cy="16" r="16" fill="#222"/>
        <path fill="#FFF" d="M24.708 21.425c-.668-.668-2.272-1.672-3.063-2.05-.917-.44-1.254-.431-1.903.037-.541.39-.891.754-1.514.618-.622-.132-1.849-1.064-3.04-2.25-1.19-1.19-2.117-2.417-2.249-3.04-.131-.627.232-.972.618-1.513.468-.65.482-.986.037-1.904-.377-.795-1.377-2.395-2.05-3.063-.667-.668-.817-.522-1.185-.39 0 0-.546.218-1.086.577-.668.445-1.04.818-1.304 1.377-.26.559-.56 1.6.967 4.317 1.232 2.194 2.44 3.858 4.235 5.648l.005.005.004.004c1.795 1.795 3.454 3.004 5.648 4.235 2.717 1.527 3.758 1.227 4.317.968.559-.259.931-.631 1.377-1.304.359-.54.577-1.086.577-1.086.132-.368.281-.518-.391-1.186z"/>
    </g>
</svg>
