<svg xmlns="http://www.w3.org/2000/svg" xmlns:xlink="http://www.w3.org/1999/xlink" width="24" height="42" viewBox="0 0 47 87">
    <defs>
        <linearGradient id="b" x1="51.934%" x2="51.934%" y1="80.859%" y2="-15.037%">
            <stop offset="0%" stop-color="#FF7303"/>
            <stop offset="100%" stop-color="#FF4D03"/>
        </linearGradient>
        <path id="a" d="M1.306 30.744l22.18 55.603 21.816-54.42z"/>
    </defs>
    <g fill="none" fill-rule="evenodd">
        <use fill="#00AEEF" xlink:href="#a"/>
        <use fill="url(#b)" xlink:href="#a"/>
        <ellipse cx="23.5" cy="23.549" fill="#FF7303" rx="23.5" ry="23.549"/>
        <g fill="#FFF">
            <path d="M20.44 34.29a4.813 4.813 0 0 0 .857-6.846c-1.691-2.123-4.817-2.5-6.982-.84a4.813 4.813 0 0 0-.858 6.845c1.692 2.122 4.818 2.499 6.983.84"/>
            <path d="M33.597 27.48a4.85 4.85 0 0 0-3.342-1.875c-2.287-.511-6.834-1.358-5.152-7.564l-.012.009a6.465 6.465 0 0 0-1.093-5.691 6.507 6.507 0 0 0-9.037-1.268c-.013.007-.024.016-.035.025l-.034.025.001.002a6.477 6.477 0 0 0-1.161 9.033 6.493 6.493 0 0 0 5.21 2.556l-.01.008c6.442.02 6.059 4.62 5.947 6.959a4.84 4.84 0 0 0 .932 3.71 4.872 4.872 0 0 0 6.82.92c.009-.006.017-.014.026-.022a4.85 4.85 0 0 0 .94-6.827z"/>
        </g>
    </g>
</svg>
