<?xml version="1.0" encoding="utf-8"?>
<!-- Generator: Adobe Illustrator 22.0.0, SVG Export Plug-In . SVG Version: 6.00 Build 0)  -->
<svg version="1.1" id="service-i" xmlns="http://www.w3.org/2000/svg" xmlns:xlink="http://www.w3.org/1999/xlink" x="0px" y="0px"
	 viewBox="0 0 19 19" style="enable-background:new 0 0 19 19;" xml:space="preserve">
<style type="text/css">
	.st0{fill:#FF7303;}
</style>
<title>2</title>
<g id="verstka">
	<g id="_768">
		<g id="yslygi">
			<g id="i-copy-3">
				<g id="Oval">
					<path class="st0" d="M9.5,19C4.3,19,0,14.7,0,9.5S4.3,0,9.5,0S19,4.3,19,9.5C19,14.7,14.7,19,9.5,19z M9.5,1C4.8,1,1,4.8,1,9.5
						S4.8,18,9.5,18S18,14.2,18,9.5C18,4.8,14.2,1,9.5,1z"/>
				</g>
				<g id="i">
					<g>
						<path class="st0" d="M8.8,5.1c0.2-0.2,0.4-0.2,0.6-0.2c0.5,0,0.8,0.4,0.8,0.8c0,0,0,0,0,0c0,0.5-0.3,0.8-0.8,0.8c0,0,0,0,0,0
							c-0.5,0-0.8-0.3-0.8-0.8c0,0,0,0,0,0C8.5,5.4,8.6,5.2,8.8,5.1z M10,7.4V13H8.8V7.4H10z"/>
					</g>
				</g>
			</g>
		</g>
	</g>
</g>
</svg>
